# xmcd CD database file
#
# Track frame offsets:
#	150
#	17062
#	38972
#	60187
#	77792
#	103537
#	121012
#	146312
#	165397
#	186975
#	206932
#	228720
#	246625
#
# Disc length: 3530 seconds
#
# Revision: 0
# Processed by: cddbd v1.5.1PL2 Copyright (c) Steve Scherf et al.
# Submitted via: CDex 1.51
#
DISCID=ae0dc80d
DTITLE=尾崎 亜美 - SUPER BEST
DYEAR=1987
DGENRE=J-pop
TTITLE0=そっと “I love you”
TTITLE1=浪漫ロマン
TTITLE2=遅すぎたメタモルフォーゼ
TTITLE3=春の予感 〜 I've been mellow 〜
TTITLE4=流れ星がすき
TTITLE5=Air Mail
TTITLE6=鐘を鳴らして
TTITLE7=天使のウィンク
TTITLE8=ボーイの季節
TTITLE9=シャイネスボーイ
TTITLE10=Know How
TTITLE11=上海湾(BAY)物語
TTITLE12=そばかすうさぎ
EXTD=YEAR: 1987
EXTT0=
EXTT1=
EXTT2=
EXTT3=
EXTT4=
EXTT5=
EXTT6=
EXTT7=
EXTT8=
EXTT9=
EXTT10=
EXTT11=
EXTT12=
PLAYORDER=
